<?xml version="1.0" standalone="no"?>
<!DOCTYPE svg PUBLIC "-//W3C//DTD SVG 20010904//EN"
 "http://www.w3.org/TR/2001/REC-SVG-20010904/DTD/svg10.dtd">
<svg version="1.0" xmlns="http://www.w3.org/2000/svg"
 width="608.000000pt" height="608.000000pt" viewBox="0 0 608.000000 608.000000"
 preserveAspectRatio="xMidYMid meet">
<metadata>
Created by potrace 1.14, written by Peter Selinger 2001-2017
</metadata>
<g transform="translate(0.000000,608.000000) scale(0.100000,-0.100000)"
fill="#000000" stroke="none">
<path d="M1907 5843 c-2 -5 -12 -33 -22 -63 -10 -30 -30 -89 -45 -130 -16 -41
-49 -136 -75 -210 -116 -334 -138 -397 -151 -427 -8 -17 -14 -37 -14 -45 0 -8
-3 -18 -7 -22 -4 -3 -8 -12 -9 -19 -2 -7 -26 -77 -54 -157 -29 -80 -72 -203
-97 -275 -25 -71 -50 -141 -56 -155 -5 -14 -11 -30 -12 -36 -2 -7 -17 -50 -33
-95 -17 -46 -65 -183 -107 -304 -42 -121 -81 -229 -85 -240 -5 -11 -29 -81
-55 -155 -26 -74 -73 -209 -105 -300 -32 -91 -81 -230 -109 -310 -28 -80 -53
-151 -56 -158 -2 -7 -5 -14 -5 -17 -1 -3 -12 -35 -26 -72 -14 -38 -42 -117
-64 -178 -21 -60 -59 -168 -84 -240 -26 -71 -49 -137 -51 -145 -7 -25 -71
-203 -84 -233 -6 -16 -11 -31 -11 -34 0 -4 -13 -43 -29 -87 -63 -173 -183
-512 -186 -526 -2 -8 -20 -60 -40 -115 -20 -55 -50 -140 -67 -190 -17 -49 -35
-96 -40 -102 -6 -7 -8 -13 -4 -13 3 0 -1 -17 -10 -38 -9 -20 -17 -41 -18 -47
-2 -5 -5 -17 -9 -25 -3 -8 -17 -51 -32 -95 -15 -44 -32 -89 -38 -100 -6 -11
-13 -73 -15 -138 l-4 -118 147 3 148 3 39 110 c21 61 53 151 70 200 17 50 42
119 55 155 14 36 26 72 28 80 4 18 93 277 105 305 4 11 13 34 18 50 6 17 13
39 17 50 31 85 107 302 109 310 2 6 9 24 15 40 7 17 14 35 15 40 2 6 6 17 9
25 3 8 17 49 31 90 59 176 106 304 115 309 5 3 514 6 1132 6 l1123 -1 19 -49
c10 -28 20 -57 22 -65 2 -8 18 -55 35 -105 50 -141 170 -485 186 -535 8 -25
19 -53 24 -62 6 -10 10 -23 10 -30 0 -6 14 -49 31 -96 17 -46 32 -89 34 -96 1
-6 5 -18 8 -26 4 -8 42 -118 86 -245 98 -286 139 -402 153 -437 l10 -28 175 0
174 0 -6 23 c-4 12 -25 74 -47 137 -22 63 -41 120 -42 125 -2 6 -6 17 -9 25
-3 8 -15 44 -27 80 -12 36 -25 74 -30 85 -5 11 -11 29 -13 40 -3 11 -30 92
-61 180 -31 88 -58 167 -61 175 -2 8 -25 76 -50 150 -26 74 -48 140 -50 145
-1 6 -5 17 -8 25 -3 8 -28 80 -56 160 -27 80 -70 206 -96 280 -71 206 -97 284
-99 295 -1 6 -4 15 -7 20 -4 6 -16 42 -28 80 -13 39 -26 79 -31 90 -16 37
-150 434 -150 445 0 6 -5 18 -10 28 -10 17 -197 557 -207 597 -2 11 -9 29 -14
40 -5 11 -29 81 -54 155 -87 258 -104 306 -170 500 -37 107 -68 200 -70 205
-1 6 -5 17 -8 25 -13 31 -68 186 -72 202 -2 10 -28 88 -59 175 -30 87 -68 199
-84 248 -52 156 -133 389 -142 410 -4 11 -10 29 -13 40 -3 11 -37 112 -76 224
-39 113 -71 206 -71 208 0 7 -309 2 -313 -4z m419 -1318 c136 -407 261 -780
277 -830 16 -49 35 -103 42 -120 7 -16 16 -43 20 -60 4 -16 10 -39 15 -50 11
-27 22 -58 26 -70 1 -5 64 -192 139 -415 75 -223 145 -432 156 -465 11 -33 22
-67 24 -75 2 -8 7 -25 11 -37 l6 -23 -248 0 c-1392 -1 -1737 0 -1742 4 -2 3 4
32 16 63 99 279 124 350 127 366 2 9 6 21 9 26 6 9 80 216 138 386 17 50 35
101 41 115 5 14 11 30 12 35 2 6 20 57 40 115 21 58 52 148 70 200 18 52 52
147 75 210 22 63 43 122 45 130 2 8 9 29 15 45 7 17 32 86 55 155 53 152 123
349 132 370 3 8 8 23 9 33 2 10 11 34 20 55 10 20 18 43 20 50 3 17 95 280
135 387 17 44 32 87 34 95 2 8 4 16 5 18 3 3 7 20 9 34 1 7 4 8 10 3 5 -6 120
-343 257 -750z"/>
<path d="M5260 5773 c-1 -90 -1 -5487 0 -5520 0 -21 5 -23 55 -23 l55 0 0 173
c0 208 0 5079 0 5295 l0 152 -55 0 -55 0 0 -77z"/>
</g>
</svg>
